<?xml version="1.0" encoding="utf-8"?>
<!-- Generator: Adobe Illustrator 21.1.0, SVG Export Plug-In . SVG Version: 6.00 Build 0)  -->
<svg version="1.1" id="Layer_1" xmlns="http://www.w3.org/2000/svg" xmlns:xlink="http://www.w3.org/1999/xlink" x="0px" y="0px"
	 viewBox="0 0 800 600" style="enable-background:new 0 0 800 600;" xml:space="preserve">
<style type="text/css">
	.st0{fill:#F89A1E;}
</style>
<g>
	<path class="st0" d="M399.7,72.9c6.8,0.4,13.6,0.7,20.3,1.3c50.1,4.5,94,23.5,131.5,57c34.8,31.1,57.7,69.6,69.1,114.9
		c3.4,13.5,5.4,27.2,6.2,41.1c0.4,6.8,0.7,13.6,0.4,20.4c-0.2,7-1,14-1.9,21c-2.6,21.5-8.2,42.1-16.9,61.9
		c-10.8,24.7-25.4,46.9-44,66.5c-29.8,31-65.6,52-107.2,63c-15.4,4.1-31,6.3-46.9,7.1c-2.9,0.1-5.7,0.5-8.6,0.4
		c-21.9-0.6-43.5-3-64.6-9c-29.2-8.4-55.4-22.4-79.1-41.3c-25.5-20.3-45.3-45.3-60.2-74.2c-10.5-20.5-17.7-42.1-21.3-64.9
		c-1.3-8.4-2.3-17-2.9-25.5c-0.5-7.2-0.6-14.4-0.3-21.6c1.6-31.1,8.9-60.9,22.4-89.1c10.3-21.5,23.6-40.9,40.2-58.1
		c17.6-18.3,37.5-33.5,60-45.2c18.4-9.6,37.9-16.4,58.3-20.6c11.3-2.3,22.6-3.7,34.1-4.6C392.1,73.1,396,73.1,399.7,72.9
		C399.6,73,399.7,73,399.7,72.9z M532.3,269c-0.8,0.5-1.7,1-2.4,1.6c-27.6,19.1-55.1,38.2-82.7,57.4c-5.7,4-11.4,7.8-17.8,10.6
		c-10.4,4.6-21.4,6.3-32.8,5.9c-13.4-0.5-25.8-4.3-36.8-11.9c-15.6-10.7-31.1-21.5-46.7-32.3c-14.8-10.2-29.5-20.5-44.3-30.7
		c-0.3-0.2-0.6-0.4-1-0.6c0,42,0,83.7,0,125.6c88.1,0,176.2,0,264.4,0C532.3,352.7,532.3,310.9,532.3,269z M267.8,205.8
		c0,0.7,0,1.1,0,1.6c0,7.1,0.1,14.2-0.1,21.2c0,2.4,0.8,3.8,2.7,5.1c34.6,23.9,69.1,47.8,103.6,71.8c7.2,5,14.9,8.1,23.7,8.5
		c9.3,0.4,18-1.5,25.8-6.9c28-19.5,56-38.8,84-58.2c7.7-5.3,15.4-10.7,23.1-16c1.3-0.9,1.9-2,1.8-3.6c-0.1-1.3-0.1-2.6-0.1-3.8
		c0-6.2,0-12.4,0-18.6c0-1-0.3-1.3-1.4-1.3c-5.6,0.1-11.3,0.1-16.9,0.1c-11.7,0-23.4,0.1-35.2,0.1c-21.8,0-43.7,0-65.5,0.1
		c-48,0-95.9,0-143.9,0C269.1,205.8,268.6,205.8,267.8,205.8z"/>
</g>
</svg>
