<?xml version="1.0" encoding="utf-8"?>
<!-- Generator: Adobe Illustrator 21.1.0, SVG Export Plug-In . SVG Version: 6.00 Build 0)  -->
<svg version="1.1" id="Layer_1" xmlns="http://www.w3.org/2000/svg" xmlns:xlink="http://www.w3.org/1999/xlink" x="0px" y="0px"
	 viewBox="0 0 800 600" style="enable-background:new 0 0 800 600;" xml:space="preserve">
<style type="text/css">
	.st0{fill:#3B5998;}
</style>
<g>
	<path class="st0" d="M627.1,297.7c-0.2,21.6-2.3,41-7.1,60.1c-7.3,29.1-20.2,55.4-38.5,79.1c-6.4,8.3-13.3,16.2-20.8,23.6
		c-16.2,16.1-34.1,29.9-54.2,40.7c-15,8-30.6,14.2-47.1,18.5c-13,3.4-26.2,5.5-39.6,6.6c-9.3,0.7-18.6,1-27.9,0.6
		c-26.2-1.1-51.6-5.8-76-15.6c-21.2-8.4-40.5-20-58-34.5c-16.7-13.7-31.4-29.3-43.8-47c-11.7-16.6-20.8-34.5-27.4-53.6
		c-4.8-13.7-8.2-27.7-10.3-42.1c-1.2-8.6-2-17.2-2.7-25.9c-0.4-5.6-0.4-11.3-0.2-16.9c0.6-13.4,2.1-26.6,4.9-39.7
		c4.5-20.7,11.8-40.3,21.9-58.9c10.2-18.6,22.8-35.4,37.4-50.7c13.1-13.7,27.9-25.1,43.9-35.2c14.9-9.4,30.8-16.8,47.5-22.3
		c13.4-4.4,27.2-7.6,41.2-9.2c6.4-0.7,12.9-1.3,19.3-1.6c6.3-0.3,12.6-0.4,18.9-0.2c27.1,1.1,53.5,6.2,78.6,16.7
		c19.6,8.2,37.7,18.9,54.1,32.5c6.3,5.2,12.5,10.7,18.4,16.5c17.6,17.4,32.4,37.1,43.6,59.2c9.3,18.3,15.8,37.6,19.6,57.8
		c1.9,10.3,3.1,20.6,3.6,31.1C626.8,291.5,627,295.5,627.1,297.7z M354.5,381.2c0,24.9,0,49.8,0,74.6c0,2.2,0.2,2.4,2.4,2.4
		c18.3,0,36.6,0,55,0c2.6,0,2.7-0.1,2.7-2.6c-0.1-12.2-0.2-24.5-0.2-36.7c0-37.5,0-75,0-112.6c0-1.9,0-1.9,1.9-1.9
		c12.2,0,24.3,0,36.5,0c0.9,0,1.4-0.3,1.6-1.2c0.3-1.7,0.7-3.4,0.8-5.1c0.5-5.1,0.8-10.2,1.3-15.3c0.4-4,0.9-8,1.3-12
		c0.2-1.8,0.1-3.6,0.3-5.4c0.5-4,1-7.9,1.5-11.9c0.2-1.5-0.1-1.8-1.6-1.8c-0.4,0-0.7,0-1.1,0c-13.6,0-27.2,0-40.8,0
		c-1.7,0-1.9-0.2-1.9-1.7c0-8-0.1-15.9,0-23.9c0-3.7,0.1-7.4,0.6-11c0.7-4.6,2.9-8.3,7.7-9.9c3.1-1.1,6.2-1.4,9.4-1.4
		c8.4,0,16.8,0,25.2-0.1c1.9,0,2.4-0.5,2.4-2.4c0-16.1,0-32.2,0-48.2c0-1.8-0.5-2.2-2.2-2.2c-4,0-8,0-12,0c-9.6,0-19.3-0.1-28.9,0.1
		c-6.6,0.1-13.2,0.6-19.6,2.3c-7,1.9-13.8,4.2-19.8,8.6c-5.4,3.9-9.9,8.7-13.2,14.5c-3.5,6.3-5.7,13-7,20c-0.5,2.9-1.4,5.8-1.6,8.7
		c-0.5,6.5-0.7,13.1-0.8,19.6c-0.1,8.3,0,16.6,0,25c0,1.8-0.1,1.9-1.9,1.9c-8.5,0-17,0-25.4,0c-0.4,0-0.9,0-1.3,0
		c-0.8,0-1.2,0.5-1.3,1.3c0,0.4,0,0.8,0,1.2c0,16,0,31.9,0,47.9c0,2.2,0.1,2.4,2.4,2.4c8.6,0,17.1,0,25.7,0c1.9,0,2.1,0.1,2.1,2
		C354.5,331.4,354.5,356.3,354.5,381.2z"/>
</g>
</svg>
