<?xml version="1.0" encoding="utf-8"?>
<!-- Generator: Adobe Illustrator 21.1.0, SVG Export Plug-In . SVG Version: 6.00 Build 0)  -->
<svg version="1.1" id="Layer_1" xmlns="http://www.w3.org/2000/svg" xmlns:xlink="http://www.w3.org/1999/xlink" x="0px" y="0px"
	 viewBox="0 0 800 600" style="enable-background:new 0 0 800 600;" xml:space="preserve">
<style type="text/css">
	.st0{fill:#F4CAB1;}
</style>
<g>
	<path class="st0" d="M398.8,526.4c-58.3-1.2-110.9-20.9-154.4-62.4c-44.9-42.9-67.3-96.1-70.2-157.8
		c-0.7-63.6,20.4-118.9,65.1-164.3c42.5-43.1,94.8-64.9,155.1-67.7c62.3-0.6,116.8,19.5,161.9,62.6c43.6,41.7,65.9,93.5,69.8,153.4
		c1.2,41.4-7,80.7-26.7,117.3c-19.7,36.7-47.5,65.7-83.2,87C480.6,515.9,441.7,525.7,398.8,526.4z M559.5,306.2c0-0.1,0-0.2,0-0.3
		c-0.8,0-1.5-0.1-2.3-0.1c-13.8,0-27.7,0-41.5,0c-0.4,0-0.8,0.1-1.2,0c-0.3-0.1-0.7-0.5-0.7-0.7c0-1.5-0.1-3,0.1-4.5
		c0.3-2.3,0.9-4.5,1.3-6.8c1.1-7.6,1.6-15.2,1.3-22.8c-0.4-8.3-1.8-16.3-4.2-24.2c-2.9-9.3-7.2-17.9-12.7-25.8
		c-1.5-2.1-2.4-4.4-2.6-7c-0.6-6.6-1.3-13.2-1.8-19.8c-0.7-8.1-1.4-16.2-2.1-24.4c-0.1-1.3-0.4-1.4-1.5-1c-4.3,1.7-8.5,3.4-12.8,5.1
		c-9.1,3.5-18.2,6.9-27.3,10.4c-5.8,2.2-11.7,3.5-17.9,3.6c-6.4,0.2-12.9,0.2-19.3,0.2c-14.5,0-28.9-0.1-43.4-0.2
		c-2.2,0-4.4,0.1-6.6-0.2c-2.8-0.3-5.6-0.6-8.2-1.6c-3.3-1.2-6.4-3-9.6-4.6c-8-3.9-16.2-7-25-8.4c-4.1-0.7-8.3-0.9-12.5-1.3
		c-0.8-0.1-1.2,0.2-1.2,1.1c-0.1,5.3-0.3,10.6-0.5,15.9c-0.3,7.1-0.6,14.3-0.9,21.4c-0.2,5.6-1.3,11-3.4,16.1
		c-2.4,5.9-5.1,11.7-7.7,17.5c-1.8,4.2-3.5,8.4-4.4,12.9c-1.5,7.9-1.7,15.9-1.4,24c0.3,7.7,0.4,15.3,0.6,23c0,1.1-0.3,1.5-1.4,1.5
		c-6.7,0-13.4,0-20.2,0c-6,0-12.1,0-18.1,0c-0.4,0-0.8,0.1-1.2,0.1c0.3,0.3,0.5,0.4,0.7,0.4c4.4,0.2,8.7,0.3,13.1,0.5
		c4.7,0.2,9.5,0.2,14.2,0.5c5.9,0.4,11.7,1.7,17.2,4c0.3,0.1,0.6,0.3,0.9,0.5c0,0.1-0.1,0.2-0.1,0.3c-14.6,1.5-29.3,2.9-43.9,4.4
		c0,0.1,0,0.3,0,0.4c1.1,0.1,2.2,0.3,3.3,0.3c9.8-0.2,19.6-0.5,29.4-0.7c2.4-0.1,4.7-0.1,7.1-0.2c4.7-0.3,8.5,1.4,11.4,4.9
		c3.2,4,6.5,7.9,10.3,11.3c11,10,24.1,16.1,38.4,19.7c5.9,1.5,11.9,2.8,17.8,4.3c0.8,0.2,1,0.6,0.6,1.3c-3.2,5.7-6.2,11.5-9.5,17.2
		c-1.8,3.1-4.8,5.1-8.4,5.6c-5.2,0.8-10.3,0.6-15.5-0.4c-6.9-1.3-13.1-4-18.4-8.4c-3.6-3-6.9-6.5-10.3-9.7c-4.4-4.2-9.1-7.9-15-9.6
		c-2-0.6-4-0.8-6-1.2c-0.1,0.1-0.2,0.3-0.3,0.4c0.5,0.8,1,1.7,1.5,2.5c5.5,8.5,11.1,17,16.4,25.6c3.1,5,6.1,9.8,10.3,13.9
		c8,7.7,17.6,11,28.5,10.5c4.6-0.2,9.2-0.3,13.9-0.1c0.8,0,1.2,0.3,1.1,1.1c0,0.2,0,0.4,0,0.6c0,15.5,0,31,0,46.4
		c0,1.1,0.3,1.6,1.5,1.5c2.2-0.3,4.5-0.3,6.7-0.7c5.2-1,9-3.9,10.8-9.1c0.9-2.9,1.3-5.8,1.3-8.9c0-10.7,0-21.4,0-32
		c0-5.1,0-10.2,1.4-15.1c0.3-1,1.2-1.5,1.9-0.7c0.3,0.3,0.3,1,0.3,1.6c0,18,0,36,0,54c0,3.6,0,7.3,0,10.9c0,0.9,0.2,1.3,1.2,1.2
		c3.5-0.4,7.1-0.5,10.6-1.2c4.5-0.9,7.4-3.7,8.2-8.3c0.5-3.1,0.9-6.2,1-9.3c0.1-13.6,0.1-27.3,0-40.9c0-2.7,0.6-5.1,1.3-7.6
		c0.1-0.3,0.4-0.8,0.6-0.8c0.9,0,1.9,0.1,2.8,0.4c0.3,0.1,0.3,1.1,0.3,1.6c0,15.3,0,30.6,0,45.8c0,3.4,0.3,6.8,1.3,10.1
		c1.3,4.6,4.1,7.8,8.7,9c2.8,0.7,5.7,0.9,8.5,1.2c1.7,0.2,1.7,0.2,1.7-1.5c0-21.3,0-42.6,0-63.8c0-2.2-0.4-2.1,2-2.1
		c1.6,0,1.6,0,1.6,1.6c0,14.5-0.1,29,0.1,43.4c0,3.2,0.5,6.4,1.2,9.5c0.8,3.9,2.9,7.1,6.6,9c4.1,2,8.4,1.9,12.8,1.2
		c0.3,0,0.6-0.7,0.6-1c-0.2-2.7-0.5-5.3-0.7-8c-0.6-6.7-1.5-13.4-1.8-20.2c-0.2-6.8,0.1-13.7,0.4-20.5c0.2-7,0.5-13.9-0.5-20.8
		c-1.1-7.9-3.7-15.2-8.3-21.7c-0.2-0.3-0.4-0.7-0.7-1.1c0.3-0.2,0.5-0.3,0.7-0.3c3.9-1,7.9-2.1,11.8-3.1c8.8-2.2,17.3-5.1,25.3-9.4
		c11.2-6,20.3-14.3,27.1-25c1.1-1.7,2.5-2.9,4.5-3.4s4-0.8,6-0.7c5.6,0.2,11.2,0.6,16.9,1c6.7,0.5,13.5,1,20.2,1.5
		c1.9,0.1,3.8,0.3,5.7,0.4c0.7,0.1,1.1-0.3,1.2-1c0.1-0.8-0.4-0.8-1-0.9c-7-0.7-14.1-1.4-21.1-2.1c-8.5-0.9-16.9-1.7-25.4-2.6
		c-2.1-0.2-2-0.2-2.1-2.3c0-1.1,0.3-1.5,1.4-1.6c0.7,0,1.3-0.3,2-0.3c7.9-0.5,15.7-1,23.6-1.4c5.6-0.3,11.2-0.3,16.8-0.5
		C556.2,306.5,557.8,306.3,559.5,306.2z"/>
</g>
</svg>
