<?xml version="1.0" encoding="utf-8"?>
<!-- Generator: Adobe Illustrator 21.1.0, SVG Export Plug-In . SVG Version: 6.00 Build 0)  -->
<svg version="1.1" id="Layer_1" xmlns="http://www.w3.org/2000/svg" xmlns:xlink="http://www.w3.org/1999/xlink" x="0px" y="0px"
	 viewBox="0 0 800 600" style="enable-background:new 0 0 800 600;" xml:space="preserve">
<style type="text/css">
	.st0{fill:#0077B5;}
</style>
<g>
	<path class="st0" d="M400.1,72.9c61.4,1.2,114.7,21.9,158.4,64.7c46,45,68.2,100.4,69,164.5c-1.7,62.6-23.9,116.7-68.9,160.6
		c-44.5,43.4-98.4,64.1-160.4,64.8c-60.1-1.6-112.6-22.1-155.9-64.2C196,418.2,173.7,362.6,173,298.1
		c1.6-60.1,22.2-112.5,64.2-155.8C281.8,96.4,336.8,74.3,400.1,72.9z M527.4,406.9c0.1-3.9,0.2-7.7,0.2-11.6c0-13.6,0.1-27.3,0-40.9
		c0-9.7,0-19.4-0.1-29.2c-0.1-5.8-0.2-11.7-0.6-17.5c-0.7-9.1-2.6-17.9-6.1-26.3c-5.4-12.8-14.2-22.4-27.3-27.7
		c-9.5-3.9-19.5-5.4-29.8-4.9c-8.7,0.4-16.8,2.9-24.2,7.6c-6.1,3.9-11.1,9-15.3,14.9c-0.5,0.7-1.2,1.3-1.9,1.9
		c-0.1-0.1-0.2-0.1-0.4-0.2c0-6.7,0-13.4,0-20c-17.1,0-33.9,0-50.9,0c0,51.3,0,102.5,0,153.7c17,0,33.9,0,50.9,0c0-0.6,0-1.1,0-1.6
		c0-28.8,0-57.5,0-86.3c0-10.4,4.1-18.7,12.5-24.7c10.1-7.3,23.2-6.7,32,1.3c4.9,4.5,7.2,10.2,8.4,16.6c1.2,6.6,1.2,13.2,1.3,19.8
		c0.1,8,0.1,16,0.1,24c0,16.5,0,33,0,49.4c0,0.5,0,0.9,0,1.6C493.3,406.9,510.2,406.9,527.4,406.9z M341.8,407
		c0-51.4,0-102.6,0-153.9c-16.9,0-33.6,0-50.4,0c0,51.3,0,102.6,0,153.9C308.2,407,325,407,341.8,407z M317.2,231.4
		c1.1-0.1,2.7-0.1,4.3-0.4c6.6-0.9,12.5-3.3,17.2-8.2c5.3-5.6,7.4-12.3,6.9-19.9c-0.5-8-4.1-14.6-10.6-19.3
		c-9.8-7.3-25.3-7.4-35.7-0.3c-13.1,8.8-15.4,27.3-4.8,38.9C300.4,228.7,308,231.3,317.2,231.4z"/>
</g>
</svg>
